HIERARCHY
ROOT Hips
{
	OFFSET 0.000000 0.000000 0.000000
	CHANNELS 6 Xposition Yposition Zposition Xrotation Yrotation Zrotation
	JOINT LeftUpLeg_virtual
	{
		OFFSET 0.000000 0.000000 0.000000
		CHANNELS 3 Xrotation Yrotation Zrotation
		JOINT LeftUpLeg
		{
			OFFSET 13.026900 -6.336304 -1.092800
			CHANNELS 3 Xrotation Yrotation Zrotation
			JOINT LeftLeg
			{
				OFFSET 0.524474 -46.096886 9.782700
				CHANNELS 3 Xrotation Yrotation Zrotation
				JOINT LeftFoot
				{
					OFFSET -0.524474 -53.427422 -12.948200
					CHANNELS 3 Xrotation Yrotation Zrotation
					JOINT LeftToeBase
					{
						OFFSET 0.192200 -14.009700 16.364100
						CHANNELS 3 Xrotation Yrotation Zrotation
						JOINT LeftToe_End
						{
							OFFSET -1.784700 -0.561700 9.474800
							CHANNELS 3 Xrotation Yrotation Zrotation
							End Site
							{
								OFFSET 0 0 0
							}
						}
					}
				}
			}
		}
	}
	JOINT RightUpLeg_virtual
	{
		OFFSET 0.000000 0.000000 0.000000
		CHANNELS 3 Xrotation Yrotation Zrotation
		JOINT RightUpLeg
		{
			OFFSET -12.883000 -6.336304 -1.092800
			CHANNELS 3 Xrotation Yrotation Zrotation
			JOINT RightLeg
			{
				OFFSET -0.524587 -46.096825 9.782800
				CHANNELS 3 Xrotation Yrotation Zrotation
				JOINT RightFoot
				{
					OFFSET 0.524587 -53.427383 -12.948300
					CHANNELS 3 Xrotation Yrotation Zrotation
					JOINT RightToeBase
					{
						OFFSET -0.192200 -14.009700 16.364100
						CHANNELS 3 Xrotation Yrotation Zrotation
						JOINT RightToe_End
						{
							OFFSET 1.784700 -0.561700 9.474800
							CHANNELS 3 Xrotation Yrotation Zrotation
							End Site
							{
								OFFSET 0 0 0
							}
						}
					}
				}
			}
		}
	}
	JOINT Spine_virtual
	{
		OFFSET 0.000000 0.000000 0.000000
		CHANNELS 3 Xrotation Yrotation Zrotation
		JOINT Spine
		{
			OFFSET 0.072000 7.257294 -0.789700
			CHANNELS 3 Xrotation Yrotation Zrotation
			JOINT Spine1
			{
				OFFSET 0.000000 12.508769 -0.658067
				CHANNELS 3 Xrotation Yrotation Zrotation
				JOINT Spine1_split
				{
					OFFSET 0.000000 12.508769 -0.658067
					CHANNELS 3 Xrotation Yrotation Zrotation
					JOINT Spine2
					{
						OFFSET 0.000000 12.508769 -0.658067
						CHANNELS 3 Xrotation Yrotation Zrotation
						JOINT Neck_virtual
						{
							OFFSET 0.000000 0.000000 0.000000
							CHANNELS 3 Xrotation Yrotation Zrotation
							JOINT Neck
							{
								OFFSET 0.000000 14.033295 7.520400
								CHANNELS 3 Xrotation Yrotation Zrotation
								JOINT Head
								{
									OFFSET 0.000000 8.198502 5.703100
									CHANNELS 3 Xrotation Yrotation Zrotation
									JOINT HeadTop_End
									{
										OFFSET 0.000000 17.760803 13.332701
										CHANNELS 3 Xrotation Yrotation Zrotation
										End Site
										{
											OFFSET 0 0 0
										}
									}
								}
							}
						}
						JOINT LeftShoulder_virtual
						{
							OFFSET 0.000000 0.000000 0.000000
							CHANNELS 3 Xrotation Yrotation Zrotation
							JOINT LeftShoulder
							{
								OFFSET 6.292450 5.785301 -0.669000
								CHANNELS 3 Xrotation Yrotation Zrotation
								JOINT LeftShoulder_split
								{
									OFFSET 6.292450 5.785301 -0.669000
									CHANNELS 3 Xrotation Yrotation Zrotation
									JOINT LeftArm
									{
										OFFSET 13.907140 -6.093903 1.965100
										CHANNELS 3 Xrotation Yrotation Zrotation
										JOINT LeftForeArm
										{
											OFFSET 34.140198 0.000000 0.000000
											CHANNELS 3 Xrotation Yrotation Zrotation
											JOINT LeftHand
											{
												OFFSET 40.960209 0.000000 0.000000
												CHANNELS 3 Xrotation Yrotation Zrotation
												End Site
												{
													OFFSET 0 0 0
												}
											}
										}
									}
								}
							}
						}
						JOINT RightShoulder_virtual
						{
							OFFSET 0.000000 0.000000 0.000000
							CHANNELS 3 Xrotation Yrotation Zrotation
							JOINT RightShoulder
							{
								OFFSET -6.292450 5.785301 -0.669000
								CHANNELS 3 Xrotation Yrotation Zrotation
								JOINT RightShoulder_split
								{
									OFFSET -6.292450 5.785301 -0.669000
									CHANNELS 3 Xrotation Yrotation Zrotation
									JOINT RightArm
									{
										OFFSET -13.907140 -6.093903 1.965100
										CHANNELS 3 Xrotation Yrotation Zrotation
										JOINT RightForeArm
										{
											OFFSET -34.140198 0.000000 0.000000
											CHANNELS 3 Xrotation Yrotation Zrotation
											JOINT RightHand
											{
												OFFSET -40.960209 0.000000 0.000000
												CHANNELS 3 Xrotation Yrotation Zrotation
												End Site
												{
													OFFSET 0 0 0
												}
											}
										}
									}
								}
							}
						}
					}
				}
			}
		}
	}
}
MOTION
Frames: 4
Frame Time: 0.03333333
0.505928 111.343475 0.371624 0.000000 0.000000 0.000000 -1.683821 -26.261710 0.373424 -26.758284 24.020017 12.937475 24.203407 7.265088 9.401393 -0.678428 1.024926 -13.759401 0.521562 0.040540 -1.469110 0.000000 0.000000 0.000000 -2.252477 -25.217801 0.479810 -18.068917 -18.788734 -7.495619 24.929478 -1.330965 -7.880613 -8.929311 -1.288483 11.678130 -2.247916 -0.155129 -0.144952 0.000000 0.000000 0.000000 -1.009768 -27.227036 0.300315 4.359302 -1.750123 0.630548 0.703146 -0.664538 0.142690 1.053565 -0.452630 0.294973 0.000000 0.000000 0.000000 0.799750 -0.759833 0.213381 -2.338802 1.476415 3.347152 17.574464 23.909967 -12.565327 0.000000 0.000000 0.000000 1.351942 -0.722204 0.182280 -0.652622 2.410289 4.370155 -1.505926 -0.007044 -0.290910 -53.327002 -2.137038 -49.402434 -13.277218 -87.525910 -12.873456 0.000000 0.000000 0.000000 2.170150 -0.398175 0.047979 -1.104936 -11.020508 10.935954 0.831915 1.798175 0.107286 -63.832516 64.701678 79.383553 -20.161921 87.268917 20.158164 0.000000 0.000000 0.000000 
0.512139 111.316315 0.376511 0.000000 0.000000 0.000000 -1.658218 -26.250775 0.429656 -26.749128 24.035267 12.910015 24.208383 7.238570 9.401588 -0.695620 0.972411 -13.770575 0.527402 0.041850 -1.474999 0.000000 0.000000 0.000000 -2.235273 -25.171171 0.530159 -18.170854 -18.984687 -7.496802 25.031392 -1.216203 -7.985856 -8.944018 -1.307676 11.632356 -2.240270 -0.158006 -0.143746 0.000000 0.000000 0.000000 -0.990073 -27.237785 0.344468 4.342279 -1.785474 0.642975 0.683946 -0.674929 0.140149 1.055238 -0.449807 0.284174 0.000000 0.000000 0.000000 0.796022 -0.769848 0.208567 -2.323873 1.493916 3.348459 17.592523 23.943546 -12.581683 0.000000 0.000000 0.000000 1.339437 -0.732990 0.183718 -0.656049 2.429888 4.281935 -1.518401 -0.023012 -0.286446 -53.311314 -2.199738 -49.339244 -12.783911 -87.404292 -12.375420 0.000000 0.000000 0.000000 2.154281 -0.414344 0.044672 -1.092834 -11.029343 10.921254 0.837324 1.809939 0.096847 -63.852631 64.735488 79.344866 -20.128578 87.273507 20.133533 0.000000 0.000000 0.000000 
0.526572 111.280579 0.370747 0.000000 0.000000 0.000000 -1.625927 -26.254373 0.488288 -26.763331 24.063690 12.899644 24.218746 7.195369 9.400027 -0.718664 0.904289 -13.780598 0.525230 0.041121 -1.478707 0.000000 0.000000 0.000000 -2.207452 -25.139249 0.586554 -18.294056 -19.208980 -7.507779 25.121666 -1.088315 -8.093066 -8.959941 -1.312362 11.585718 -2.220030 -0.160739 -0.142286 0.000000 0.000000 0.000000 -0.956175 -27.253437 0.397161 4.324245 -1.823015 0.657361 0.661130 -0.686553 0.138747 1.054577 -0.439873 0.275186 0.000000 0.000000 0.000000 0.794177 -0.781958 0.203648 -2.309410 1.504382 3.356970 17.605673 23.966442 -12.591162 0.000000 0.000000 0.000000 1.325672 -0.746418 0.184928 -0.654217 2.435577 4.189427 -1.526998 -0.039038 -0.273670 -53.313328 -2.264003 -49.262541 -12.274721 -87.299045 -11.864972 0.000000 0.000000 0.000000 2.138954 -0.431787 0.041624 -1.081491 -11.026047 10.894156 0.835853 1.835166 0.086338 -63.851573 64.746075 79.297649 -20.152799 87.281273 20.164245 0.000000 0.000000 0.000000 
0.546477 111.243889 0.358490 0.000000 0.000000 0.000000 -1.588118 -26.273371 0.545866 -26.786919 24.102675 12.902929 24.223561 7.148360 9.394673 -0.747940 0.838671 -13.787459 0.521857 0.038678 -1.480400 0.000000 0.000000 0.000000 -2.169595 -25.131556 0.645609 -18.432623 -19.432549 -7.532302 25.189878 -0.943659 -8.194294 -8.952917 -1.293758 11.571872 -2.226291 -0.163009 -0.146436 0.000000 0.000000 0.000000 -0.914257 -27.277260 0.455057 4.302209 -1.861904 0.675626 0.636433 -0.698883 0.139515 1.052728 -0.422832 0.265225 0.000000 0.000000 0.000000 0.793785 -0.795813 0.200771 -2.291983 1.508899 3.365585 17.617968 23.979251 -12.600362 0.000000 0.000000 0.000000 1.312095 -0.761903 0.187153 -0.647438 2.430220 4.095848 -1.533116 -0.060753 -0.253373 -53.346684 -2.325645 -49.175337 -11.682151 -87.200192 -11.273269 0.000000 0.000000 0.000000 2.126109 -0.449335 0.040152 -1.072331 -11.005753 10.842173 0.834930 1.868130 0.074519 -63.861470 64.740549 79.273730 -20.137573 87.275952 20.150166 0.000000 0.000000 0.000000 
